<svg width="600" height="600" viewBox="0 0 600 600" version="1.1" xmlns="http://www.w3.org/2000/svg" xmlns:xlink="http://www.w3.org/1999/xlink">
<title>Horizon</title>
<desc>Created using Figma</desc>
<g id="Canvas" transform="matrix(3 0 0 3 -1038 -1485)">
<g id="Logo">
<g id="Rectangle">
<use xlink:href="#path0_fill" transform="matrix(-3.34768e-17 1 -1 -3.34768e-17 546 495)" fill="#11224D"/>
</g>
<g id="Rectangle">
<use xlink:href="#path1_fill" transform="matrix(3.34768e-17 1 1 -3.34768e-17 346 545)" fill="#FF055F"/>
<use xlink:href="#path1_fill" transform="matrix(3.34768e-17 1 1 -3.34768e-17 346 545)" fill="url(#paint2_linear)"/>
</g>
<g id="Rectangle">
<use xlink:href="#path2_fill" transform="matrix(3.34768e-17 1 1 -3.34768e-17 346 595)" fill="#10E5CC"/>
<use xlink:href="#path2_fill" transform="matrix(3.34768e-17 1 1 -3.34768e-17 346 595)" fill="url(#paint4_linear)"/>
</g>
<g id="Rectangle">
<use xlink:href="#path3_fill" transform="matrix(3.34768e-17 1 1 -3.34768e-17 346 595)" fill="#05FF00"/>
</g>
<g id="Rectangle">
<use xlink:href="#path0_fill" transform="matrix(3.34768e-17 1 1 -3.34768e-17 346 495)" fill="#090909"/>
</g>
<g id="Rectangle">
<use xlink:href="#path1_fill" transform="matrix(-3.34768e-17 1 -1 -3.34768e-17 546 545)" fill="#EB5757"/>
<use xlink:href="#path1_fill" transform="matrix(-3.34768e-17 1 -1 -3.34768e-17 546 545)" fill="url(#paint8_linear)"/>
</g>
<g id="Rectangle">
<use xlink:href="#path2_fill" transform="matrix(-3.34768e-17 1 -1 -3.34768e-17 546 595)" fill="#10E5CC"/>
<use xlink:href="#path2_fill" transform="matrix(-3.34768e-17 1 -1 -3.34768e-17 546 595)" fill="url(#paint10_linear)"/>
</g>
<g id="Rectangle">
<use xlink:href="#path3_fill" transform="matrix(-3.34768e-17 1 -1 -3.34768e-17 546 595)" fill="#EBFFFC"/>
</g>
</g>
</g>
<defs>
<linearGradient id="paint2_linear" x1="0" y1="0" x2="1" y2="0" gradientUnits="userSpaceOnUse" gradientTransform="matrix(3.06162e-15 100 -50 6.12323e-15 50 -6.12323e-15)">
<stop offset="0" stop-color="#FF055F"/>
<stop offset="1" stop-color="#EB5757"/>
</linearGradient>
<linearGradient id="paint4_linear" x1="0" y1="0" x2="1" y2="0" gradientUnits="userSpaceOnUse" gradientTransform="matrix(3.06162e-15 100 -50 6.12323e-15 50 -6.12323e-15)">
<stop offset="0" stop-color="#FC92C5"/>
<stop offset="1" stop-color="#10E5CC" stop-opacity="0"/>
</linearGradient>
<linearGradient id="paint8_linear" x1="0" y1="0" x2="1" y2="0" gradientUnits="userSpaceOnUse" gradientTransform="matrix(3.06162e-15 100 -50 6.12323e-15 50 -6.12323e-15)">
<stop offset="0" stop-color="#FFF505"/>
<stop offset="1" stop-color="#EB5757"/>
</linearGradient>
<linearGradient id="paint10_linear" x1="0" y1="0" x2="1" y2="0" gradientUnits="userSpaceOnUse" gradientTransform="matrix(3.06162e-15 100 -50 6.12323e-15 50 -6.12323e-15)">
<stop offset="0" stop-color="#F2994A"/>
<stop offset="1" stop-color="#10E5CC" stop-opacity="0"/>
</linearGradient>
<path id="path0_fill" d="M 100 0L 50 100L 0 100L 100 0Z"/>
<path id="path1_fill" d="M 50 0L 50 100L 0 100L 50 0Z"/>
<path id="path2_fill" d="M 0 0L 50 100L 0 100L 0 0Z"/>
<path id="path3_fill" d="M 0 0L 100 100L 50 100L 0 0Z"/>
</defs>
</svg>
